<svg xmlns="http://www.w3.org/2000/svg" version="1.1" xmlns:xlink="http://www.w3.org/1999/xlink" xmlns:svgjs="http://svgjs.dev/svgjs" width="1500" height="1470" viewBox="0 0 1500 1470"><g transform="matrix(1,0,0,1,0.027711475768683158,0.5962407008513537)"><svg viewBox="0 0 252 247" data-background-color="#ffffff" preserveAspectRatio="xMidYMid meet" height="1470" width="1500" xmlns="http://www.w3.org/2000/svg" xmlns:xlink="http://www.w3.org/1999/xlink"><g id="tight-bounds" transform="matrix(1,0,0,1,-0.0043029434084473905,-0.09997365579206985)"><svg viewBox="0 0 252.0089584713376 247.2" height="247.2" width="252.0089584713376"><g><svg viewBox="0 0 252.0089584713376 247.2" height="247.2" width="252.0089584713376"><g><svg viewBox="0 0 252.0089584713376 247.2" height="247.2" width="252.0089584713376"><g id="textblocktransform"><svg viewBox="0 0 252.0089584713376 247.2" height="247.2" width="252.0089584713376" id="textblock"><g><svg viewBox="0 0 252.0089584713376 247.2" height="247.2" width="252.0089584713376"><path d="M251.419 53.02C250.234 27.36 246.858 20.227 246.858 20.227 236.491-6.202 223.554-0.506 211.931 3.292 191.411 3.446 170.975 9.091 150.502 12.119 107.531 12.581 64.193 4.986 21.436 23.717 17.419 29.464-4.167 24.846 0.714 56.304 1.994 69.39 6.662 83.913 6.52 95.922 7.159 98.026 8.048 93.202 8.427 96.23 9.754 104.39 11.922 100.541 13.699 105.365 11.223 118.246 13 128.971 14.694 140.21 11.709 143.135 7.882 141.749 6.164 151.449 5.987 158.479 5.027 157.145 3.972 156.837 3.202 156.632 1.65 157.402 1.911 159.608 2.8 167.152-1.015 171.514 1.378 178.904-0.269 186.91 2.515 193.838 2.136 202.511 2.089 204.255 2.349 205.744 2.764 206.154 4.6 208.361 1.923 212.672 2.207 217.342 21.045 249.262 41.482 227.195 60.781 241.872 65.793 231.608 62.025 245.516 64.027 243.36 65.591 240.846 66.729 251.263 68.494 245.362 68.766 243.668 68.352 239.665 69.323 240.435 69.833 240.846 70.283 240.743 70.354 238.382 70.461 234.841 69.525 237.048 69.276 235.201 71.965 225.861 71.302 248.081 73.825 247.158 73.707 244.438 72.972 240.538 74.477 241.051 75.97 237.151 76.017 233.918 77.344 242.693 77.391 244.592 77.628 245.926 78.007 246.85 82.154 237.305 86.277 250.237 90.625 245.926 93.291 241.205 95.85 248.492 98.551 246.696 99.499 245.259 100.458 242.693 101.371 247.004 112.543 247.928 124.449 244.079 135.041 247.158 163.345 241.41 193.591 249.518 223.435 241.923 230.473 238.998 237.783 234.841 244.642 231.506 244.642 231.506 250.199 222.371 250.199 181.316S251.383 145.393 251.561 112.703C251.739 80.013 252.568 78.679 251.383 53.02Z" opacity="1" fill="#ff4136" data-fill-palette-color="tertiary"></path><g transform="matrix(1,0,0,1,55.76832,26.230666666666668)"><svg width="140.4723184713376" viewBox="5.05 -31.4 22.65 31.4" height="194.73866666666666" data-palette-color="#ffffff"><path d="M8.95 0L5.05 0 5.05-31.4 16-31.4Q21.38-31.4 24.14-28.84 26.9-26.28 26.9-22.1L26.9-22.1Q26.9-17.98 24.14-15.41 21.38-12.85 16-12.85L16-12.85 8.95-12.85 8.95 0ZM27.7 0L22.65 0 13.65-14.25 17.9-14.25 27.7 0ZM8.95-28.05L8.95-15.6 15.7-15.6Q19.23-15.6 21.06-17.34 22.9-19.07 22.9-21.85L22.9-21.85Q22.9-24.7 21.14-26.38 19.38-28.05 16-28.05L16-28.05 8.95-28.05Z" opacity="1" transform="matrix(1,0,0,1,0,0)" fill="#ffffff" class="wordmark-text-0" data-fill-palette-color="quaternary" id="text-0"></path></svg></g></svg></g></svg></g></svg></g><g></g></svg></g><defs></defs></svg><rect width="252.0089584713376" height="247.2" fill="none" stroke="none" visibility="hidden"></rect></g></svg></g></svg>